HIERARCHY
ROOT joint_Root
{
	OFFSET 0.0 0.0 0.0
	CHANNELS 6 Xposition Yposition Zposition Zrotation Xrotation Yrotation 
	JOINT Hips
	{
		OFFSET -0.726466 93.3139 -2.00062
		CHANNELS 6 Xposition Yposition Zposition Zrotation Xrotation Yrotation 
		JOINT Spine
		{
			OFFSET 15.7357 0.0 0.0
			CHANNELS 6 Xposition Yposition Zposition Zrotation Xrotation Yrotation 
			JOINT Chest
			{
				OFFSET 8.98455 -0.406207 0.0
				CHANNELS 6 Xposition Yposition Zposition Zrotation Xrotation Yrotation 
				JOINT Neck
				{
					OFFSET 16.3773 0.0 0.0
					CHANNELS 6 Xposition Yposition Zposition Zrotation Xrotation Yrotation 
					JOINT Head
					{
						OFFSET 6.45672 0.0 0.0
						CHANNELS 6 Xposition Yposition Zposition Zrotation Xrotation Yrotation 
						End Site
						{
							OFFSET 0.0 0.0 0.0
						}
					}
				}
				JOINT Shoulder_L
				{
					OFFSET 12.9942 -0.242716 4.98039
					CHANNELS 6 Xposition Yposition Zposition Zrotation Xrotation Yrotation 
					JOINT UpperArm_L
					{
						OFFSET 5.34809 0.0 0.0
						CHANNELS 6 Xposition Yposition Zposition Zrotation Xrotation Yrotation 
						JOINT LowerArm_L
						{
							OFFSET 24.3286 1.87007e-05 0.0
							CHANNELS 6 Xposition Yposition Zposition Zrotation Xrotation Yrotation 
							JOINT Hand_L
							{
								OFFSET 22.2916 0.0 0.0
								CHANNELS 6 Xposition Yposition Zposition Zrotation Xrotation Yrotation 
								End Site
								{
									OFFSET 0.0 0.0 0.0
								}
							}
						}
					}
				}
				JOINT Shoulder_R
				{
					OFFSET 12.9945 -0.242716 -4.98039
					CHANNELS 6 Xposition Yposition Zposition Zrotation Xrotation Yrotation 
					JOINT UpperArm_R
					{
						OFFSET -5.34813 0.0 0.0
						CHANNELS 6 Xposition Yposition Zposition Zrotation Xrotation Yrotation 
						JOINT LowerArm_R
						{
							OFFSET -24.3289 0.000322201 0.0
							CHANNELS 6 Xposition Yposition Zposition Zrotation Xrotation Yrotation 
							JOINT Hand_R
							{
								OFFSET -22.2915 -0.000108084 0.0
								CHANNELS 6 Xposition Yposition Zposition Zrotation Xrotation Yrotation 
								End Site
								{
									OFFSET 0.0 0.0 0.0
								}
							}
						}
					}
				}
			}
		}
		JOINT UpperLeg_L
		{
			OFFSET -2.19248 -6.46944 0.0
			CHANNELS 6 Xposition Yposition Zposition Zrotation Xrotation Yrotation 
			JOINT LowerLeg_L
			{
				OFFSET 39.0811 0.0 -1.23785e-05
				CHANNELS 6 Xposition Yposition Zposition Zrotation Xrotation Yrotation 
				JOINT Foot_L
				{
					OFFSET 40.9854 0.0 -1.26872e-05
					CHANNELS 6 Xposition Yposition Zposition Zrotation Xrotation Yrotation 
					JOINT Toes_L
					{
						OFFSET 11.7543 0.0 0.0
						CHANNELS 6 Xposition Yposition Zposition Zrotation Xrotation Yrotation 
						End Site
						{
							OFFSET 0.0 0.0 0.0
						}
					}
				}
			}
		}
		JOINT UpperLeg_R
		{
			OFFSET -2.19251 6.46944 0.0
			CHANNELS 6 Xposition Yposition Zposition Zrotation Xrotation Yrotation 
			JOINT LowerLeg_R
			{
				OFFSET -39.0811 -0.00228153 -0.0401928
				CHANNELS 6 Xposition Yposition Zposition Zrotation Xrotation Yrotation 
				JOINT Foot_R
				{
					OFFSET -40.9854 0.0 0.0
					CHANNELS 6 Xposition Yposition Zposition Zrotation Xrotation Yrotation 
					JOINT Toes_R
					{
						OFFSET -11.7543 0.0 0.0
						CHANNELS 6 Xposition Yposition Zposition Zrotation Xrotation Yrotation 
						End Site
						{
							OFFSET 0.0 0.0 0.0
						}
					}
				}
			}
		}
	}
}
MOTION
Frames:	5
Frame Time:	0.0333333
0.000000 0.000000 0.000000 0.000000 0.000000 -0.000000 0.007207 92.096900 1.885440 88.000100 -0.832897 2.959180 15.735700 0.000005 -0.000001 88.077900 85.945800 -87.741300 8.984550 -0.406207 -0.000000 0.338691 -0.293687 0.673632 16.377300 -0.000001 -0.000001 2.438520 -2.995870 0.681572 6.456720 -0.000001 -0.000000 1.955370 -2.724470 0.674034 12.994200 -0.242716 4.980390 -89.997900 -0.006653 -72.541000 5.348090 -0.000007 -0.000001 -67.045400 35.097900 -14.542800 24.328600 0.000019 0.000005 2.789650 6.350020 -23.776000 22.291600 -0.000001 0.000005 6.004510 5.472440 -5.461620 12.994500 -0.242716 -4.980390 87.525400 7.305710 -71.229600 -5.348130 -0.000001 -0.000004 -62.299100 38.309900 -15.726200 -24.328900 0.000322 -0.000009 4.215300 9.177750 -24.807200 -22.291500 -0.000108 -0.000004 9.444720 5.364550 -1.818780 -2.192480 -6.469440 -0.000000 -175.907000 -6.773620 -1.759070 39.081100 -0.000007 -0.000012 -0.111215 0.266199 22.674700 40.985400 -0.000006 -0.000013 0.200816 3.245400 -68.188700 11.754300 -0.000000 0.000003 -0.000054 -0.000603 -16.601000 -2.192510 6.469440 -0.000001 178.913000 13.490200 -179.332000 -39.081100 -0.002282 -0.040193 -0.045939 0.142370 19.086200 -40.985400 0.000008 0.000006 2.645160 7.912450 -67.105500 -11.754300 -0.000006 -0.000006 -0.006729 -0.077322 -19.720600
0.000000 0.000000 0.000000 0.000000 0.000000 -0.000000 0.039506 92.104100 1.820600 87.967000 -0.876852 2.927740 15.735700 0.000005 -0.000001 87.919900 85.967500 -87.576500 8.984550 -0.406207 -0.000000 0.294730 -0.315036 0.687093 16.377300 -0.000001 -0.000001 2.380380 -3.003760 0.673745 6.456720 -0.000001 -0.000000 1.768520 -2.625680 0.739088 12.994200 -0.242716 4.980390 -90.086700 0.271877 -72.323800 5.348090 -0.000007 -0.000001 -66.280000 32.814700 -14.443300 24.328600 0.000019 0.000005 3.816980 7.587350 -26.806700 22.291600 -0.000001 0.000005 6.203720 5.475020 -5.559020 12.994500 -0.242716 -4.980390 87.470800 7.324620 -70.890200 -5.348130 -0.000001 -0.000004 -60.404600 37.490800 -16.246200 -24.328900 0.000322 -0.000009 5.054140 8.789380 -30.067300 -22.291500 -0.000108 -0.000004 10.840700 5.378860 -2.262430 -2.192480 -6.469440 -0.000000 -175.890000 -6.894670 -1.853090 39.081100 -0.000007 -0.000012 -0.112608 0.269065 22.710200 40.985400 -0.000006 -0.000013 0.228795 3.275350 -68.158700 11.754300 -0.000000 0.000003 -0.000051 -0.000580 -16.600100 -2.192510 6.469440 -0.000001 178.974000 13.387100 -179.424000 -39.081100 -0.002282 -0.040193 -0.042921 0.133625 19.089500 -40.985400 0.000008 0.000006 2.699230 7.806690 -67.059900 -11.754300 -0.000006 -0.000006 -0.006830 -0.078195 -19.756200
0.000000 0.000000 0.000000 0.000000 0.000000 -0.000000 0.076115 92.101100 1.752480 87.999500 -0.909603 2.954620 15.735700 0.000005 -0.000001 87.811300 85.977900 -87.486300 8.984550 -0.406207 -0.000000 0.273385 -0.328378 0.650474 16.377300 -0.000001 -0.000001 2.370070 -3.042210 0.678388 6.456720 -0.000001 -0.000000 1.635760 -2.608590 0.752102 12.994200 -0.242716 4.980390 -90.193700 0.598725 -72.070300 5.348090 -0.000007 -0.000001 -64.649200 29.581300 -14.910100 24.328600 0.000019 0.000005 4.563200 7.642650 -30.968400 22.291600 -0.000001 0.000005 7.268330 5.484930 -5.938130 12.994500 -0.242716 -4.980390 87.450000 7.228510 -70.508800 -5.348130 -0.000001 -0.000004 -58.227700 35.576800 -17.248200 -24.328900 0.000322 -0.000009 5.814830 8.056890 -36.007400 -22.291500 -0.000108 -0.000004 12.059600 5.401140 -2.974450 -2.192480 -6.469440 -0.000000 -175.973000 -6.832840 -1.898850 39.081100 -0.000007 -0.000012 -0.109216 0.260277 22.763800 40.985400 -0.000006 -0.000013 0.245950 3.176290 -68.143800 11.754300 -0.000000 0.000003 -0.000049 -0.000557 -16.599200 -2.192510 6.469440 -0.000001 178.887000 13.352300 -179.486000 -39.081100 -0.002282 -0.040193 -0.050500 0.154938 19.156400 -40.985400 0.000008 0.000006 2.440740 7.890570 -66.994700 -11.754300 -0.000006 -0.000006 -0.007050 -0.080090 -19.833600
0.000000 0.000000 0.000000 0.000000 0.000000 -0.000000 0.084250 92.112400 1.649030 88.002300 -0.965591 3.002200 15.735700 0.000005 -0.000001 88.019600 85.994400 -87.709200 8.984550 -0.406207 -0.000000 0.241244 -0.297137 0.621084 16.377300 -0.000001 -0.000001 2.442920 -3.071290 0.689130 6.456720 -0.000001 -0.000000 1.627210 -2.690200 0.757878 12.994200 -0.242716 4.980390 -90.225800 0.689321 -71.864900 5.348090 -0.000007 -0.000001 -62.679100 25.448100 -16.080800 24.328600 0.000019 0.000005 4.491590 6.351410 -35.377600 22.291600 -0.000001 0.000005 8.738710 5.512410 -7.041890 12.994500 -0.242716 -4.980390 87.455600 7.066090 -70.138400 -5.348130 -0.000001 -0.000004 -55.624400 32.821700 -18.962300 -24.328900 0.000322 -0.000009 7.436130 8.220100 -42.396400 -22.291500 -0.000108 -0.000004 13.713700 5.405470 -3.116080 -2.192480 -6.469440 -0.000000 -175.967000 -6.934560 -1.919860 39.081100 -0.000007 -0.000012 -0.109861 0.261822 22.763200 40.985400 -0.000006 -0.000013 0.264828 3.238460 -68.071000 11.754300 -0.000000 0.000003 -0.000065 -0.000708 -16.604900 -2.192510 6.469440 -0.000001 178.892000 13.268900 -179.516000 -39.081100 -0.002282 -0.040193 -0.050672 0.155457 19.153500 -40.985400 0.000008 0.000006 2.375210 7.858980 -66.905800 -11.754300 -0.000006 -0.000006 -0.006626 -0.076415 -19.683600
0.000000 0.000000 0.000000 0.000000 0.000000 -0.000000 0.090002 92.115900 1.534320 87.987400 -1.015100 3.064850 15.735700 0.000005 -0.000001 88.100300 86.003700 -87.795700 8.984550 -0.406207 -0.000000 0.223108 -0.284928 0.609403 16.377300 -0.000001 -0.000001 2.532910 -3.047180 0.706354 6.456720 -0.000001 -0.000000 1.690750 -2.731960 0.709883 12.994200 -0.242716 4.980390 -90.215000 0.649752 -71.688900 5.348090 -0.000007 -0.000001 -60.462600 20.701800 -17.800700 24.328600 0.000019 0.000005 5.647090 6.561200 -40.871500 22.291600 -0.000001 0.000005 11.540200 5.531460 -7.859190 12.994500 -0.242716 -4.980390 87.481900 6.890670 -69.869200 -5.348130 -0.000001 -0.000004 -52.685900 28.981700 -21.197800 -24.328900 0.000322 -0.000009 10.537000 9.116950 -49.577100 -22.291500 -0.000108 -0.000004 15.798300 5.409760 -3.257060 -2.192480 -6.469440 -0.000000 -175.984000 -6.811430 -1.974400 39.081100 -0.000007 -0.000012 -0.107876 0.256136 22.839300 40.985400 -0.000006 -0.000013 0.241830 3.071830 -68.030300 11.754300 -0.000000 0.000003 -0.000050 -0.000570 -16.599700 -2.192510 6.469440 -0.000001 178.905000 13.218000 -179.579000 -39.081100 -0.002282 -0.040193 -0.052180 0.159139 19.227100 -40.985400 0.000008 0.000006 2.373720 7.869400 -66.854700 -11.754300 -0.000006 -0.000006 -0.006877 -0.078606 -19.773000
